<svg width="13" height="13" viewBox="0 0 13 13" fill="none" xmlns="http://www.w3.org/2000/svg">
<g clip-path="url(#clip0_42_30)">
<rect width="13" height="13" fill="white"/>
<path d="M5.28128 3.64162C6.63328 2.28231 10.0141 4.6605 5.28128 7.71875C0.548471 4.6605 3.92928 2.28312 5.28128 3.64162Z" fill="#185A80"/>
<path d="M10.5625 5.28147C10.5643 6.40503 10.2061 7.49962 9.54038 8.40472C9.57288 8.42855 9.60403 8.45509 9.63382 8.48434L12.7619 11.6125C12.9144 11.7648 13.0001 11.9715 13.0002 12.187C13.0002 12.4026 12.9147 12.6093 12.7623 12.7617C12.61 12.9142 12.4033 12.9999 12.1878 13C11.9723 13.0001 11.7655 12.9145 11.6131 12.7622L8.48494 9.63403C8.45552 9.605 8.42836 9.57376 8.40369 9.54059H8.40532C7.44804 10.2429 6.28204 10.6022 5.0955 10.5604C3.90895 10.5187 2.77109 10.0783 1.86556 9.31043C0.960031 8.54254 0.339659 7.49194 0.104571 6.32816C-0.130517 5.16439 0.0333938 3.95535 0.56985 2.89618C1.10631 1.83701 1.98401 0.989498 3.0613 0.49043C4.1386 -0.00863834 5.35263 -0.130146 6.50746 0.145517C7.66229 0.42118 8.69055 1.07793 9.42628 2.00978C10.162 2.94162 10.5623 4.09419 10.5625 5.28147ZM5.28126 9.75022C5.8681 9.75022 6.4492 9.63463 6.99137 9.41006C7.53355 9.18548 8.02618 8.85631 8.44114 8.44135C8.8561 8.02639 9.18527 7.53376 9.40984 6.99159C9.63442 6.44941 9.75001 5.86831 9.75001 5.28147C9.75001 4.69462 9.63442 4.11353 9.40984 3.57135C9.18527 3.02918 8.8561 2.53655 8.44114 2.12159C8.02618 1.70662 7.53355 1.37746 6.99137 1.15288C6.4492 0.928306 5.8681 0.812719 5.28126 0.812719C4.09607 0.812719 2.95943 1.28353 2.12137 2.12159C1.28332 2.95964 0.812507 4.09628 0.812507 5.28147C0.812507 6.46666 1.28332 7.6033 2.12137 8.44135C2.95943 9.27941 4.09607 9.75022 5.28126 9.75022Z" fill="#185A80"/>
</g>
<defs>
<clipPath id="clip0_42_30">
<rect width="13" height="13" fill="white"/>
</clipPath>
</defs>
</svg>
